# xmcd
#
# Track frame offsets: 
#        150
#        10952
#        26732
#        48190
#        66577
#        85702
#        109462
#        134187
#        154000
#        166340
#        172582
#        194715
#
# Disc length: 2863 seconds
#
# Revision: 6
# Processed by: cddbd v1.5.2PL0 Copyright (c) Steve Scherf et al.
# Submitted via: ExactAudioCopy v0.90b4
#
DISCID=a40b2d0c
DTITLE=Me'Shell NdegéOcello - Bitter
DYEAR=1999
DGENRE=R&B
TTITLE0=Adam
TTITLE1=Fool of Me
TTITLE2=Faithful
TTITLE3=Satisfy
TTITLE4=Bitter
TTITLE5=May This Be Love
TTITLE6=Sincerity
TTITLE7=Loyalty
TTITLE8=Beautiful
TTITLE9=Eve
TTITLE10=Wasted Time
TTITLE11=Grace
EXTD=Special Thanks to: Danny Heaps and Keryn Kaplan.\nArt Direction: 
EXTD=Kevin Reagan\nDesign: Kevin Reagan, Gail Swanlund\nPhotography: S
EXTD=heryl Nields\n\nMusicians:\nMeshell Ndegéocello, Abe Laboriel, Jr
EXTD=, Doyle Bramhall II, Lisa Coleman, Chris Bruce, Wendy Melvoin, G
EXTD=reg Leisz, David Torn, Ronny Drayton, Danny Sadownick , Biti Stra
EXTD=ug, Arif St. Michael, Joe Henry, Sandra Park, Sharon Yamata, Alan
EXTD=Stepansky, Robert Rinehart\n\nMaverick Rcording Company, 9348 Ci
EXTD=vic Center Dr., Beverly Hills, CA 90210-3606 - 75 Rockefeloler Pla
EXTD=za, New Youk, NY 10019-6908 Manufactured and distributed by Warne
EXTD=r Bros. Ricords Inc., a Time Warner Company. ©\n©1999 Maverick Re
EXTD=cording Company. Made in USA YEAR: 1999
EXTT0=(Meshell Ndegéocello) Revolutionary Jazz Giant/Nomad-Noman Music
EXTT0=/Warner-Tamerlane Music Corp. BMI
EXTT1=(Meshell Ndegéocello/Federico Gonzalez Peña) Revolutionary Jazz 
EXTT1=Giant/Nomad-Noman Music/Warner-Tamerlane Music Corp. BMI
EXTT2=(Meshell Ndegéocello/David Gamson) Revolutionary Jazz Giant/Noma
EXTT2=d-Noman Music/Warner-Tamerlane Music Corp. BMI
EXTT3=(Meshell Ndegéocello/Federico Gozalez Peña) Revolutionary Jazz G
EXTT3=iant/Nomad-Noman Music/Warner-Tamerlane Music Corp. BMI
EXTT4=(Meshell Ndegéocello) Revolutionary Jazz Giant/Nomad-Noman Music
EXTT4=/Warner-Tamerlane Music Corp. BMI
EXTT5=(Jimi Hendrix) Experience Hendrix LLC ASCAP
EXTT6=(Meshell Ndegéocello/Doyle Bramhal) Revolutionary Jazz Giant/Nom
EXTT6=ad-Noman Music/Warner-Tamerlane Music Corp. BMI
EXTT7=(Meshell Ndegéocello/Allen Cato) Revolutionary Jazz Giant/Nomad-
EXTT7=Noman Music/Warner-Tamerlane Music Corp. BMI
EXTT8=(Meshell Ndegéocello) Revolutionary Jazz Giant/Nomad-Noman Music
EXTT8=/Warner-Tamerlane Music Corp. BMI
EXTT9=(David Torn/Roger Moutenot) Torn Music Co. BMI/Melmar Music ASCA
EXTT9=P
EXTT10=(Meshell Ndegéocello) Revolutionary Jazz Giant/Nomad-Noman Musi
EXTT10=c/Warner-Tamerlane Music Corp. BMI
EXTT11=(Meshell Ndegéocello) Revolutionary Jazz Giant/Nomad-Noman Musi
EXTT11=c/Warner-Tamerlane Music Corp. BMI
PLAYORDER=
